<svg xmlns="http://www.w3.org/2000/svg" width="640" height="330" style="background:#fff;font-family:-apple-system,BlinkMacSystemFont,sans-serif" viewBox="0 0 640 330">
<text x="320" y="28" fill="#333" font-size="16" font-weight="600" text-anchor="middle">Homeward Architecture</text>
<rect width="117" height="40" x="41" y="55" fill="#f5f5f7" stroke="#d1d1d6" rx="8"/>
<text x="99" y="74" fill="#333" font-size="8" text-anchor="middle">Web</text>
<text x="99" y="84" fill="#333" font-size="8" text-anchor="middle">Next.js static export</text>
<rect width="117" height="40" x="188" y="55" fill="#f5f5f7" stroke="#d1d1d6" rx="8"/>
<text x="246" y="72" fill="#333" font-size="12" text-anchor="middle">iOS</text>
<text x="246" y="86" fill="#333" font-size="12" text-anchor="middle">SwiftUI</text>
<rect width="117" height="40" x="335" y="55" fill="#f5f5f7" stroke="#d1d1d6" rx="8"/>
<text x="393" y="74" fill="#333" font-size="8" text-anchor="middle">Android / macOS / Windows</text>
<text x="393" y="84" fill="#333" font-size="8" text-anchor="middle">KMP Compose</text>
<rect width="117" height="40" x="482" y="55" fill="#f5f5f7" stroke="#d1d1d6" rx="8"/>
<text x="540" y="72" fill="#333" font-size="12" text-anchor="middle">Terminal</text>
<text x="540" y="86" fill="#333" font-size="12" text-anchor="middle">tui/</text>
<rect width="200" height="40" x="105" y="145" fill="#1f6fb2" fill-opacity=".15" stroke="#1f6fb2" rx="8"/>
<text x="205" y="162" fill="#333" font-size="12" font-weight="500" text-anchor="middle">app/</text>
<text x="205" y="176" fill="#333" font-size="12" font-weight="500" text-anchor="middle">board, listing, post, auth</text>
<rect width="200" height="40" x="335" y="145" fill="#1f6fb2" fill-opacity=".15" stroke="#1f6fb2" rx="8"/>
<text x="435" y="162" fill="#333" font-size="12" font-weight="500" text-anchor="middle">lib/supabase.ts</text>
<text x="435" y="176" fill="#333" font-size="12" font-weight="500" text-anchor="middle">client + OAuth</text>
<rect width="200" height="40" x="220" y="235" fill="#1f6fb2" fill-opacity=".15" stroke="#1f6fb2" rx="8"/>
<text x="320" y="252" fill="#333" font-size="12" font-weight="500" text-anchor="middle">Supabase</text>
<text x="320" y="266" fill="#333" font-size="12" font-weight="500" text-anchor="middle">listings, auth, RLS</text>
<path stroke="#d1d1d6" fill="none" d="M99 95v25M246 95v25M393 95v25M540 95v25M99 120H540M205 120v25M435 120v25M205 120H435M205 185v25M435 185v25M205 210H435M320 210V235"/>
</svg>
